<?xml version="1.0" encoding="UTF-8"?>
<svg id="_图层_1" data-name="图层_1" xmlns="http://www.w3.org/2000/svg" version="1.1" viewBox="0 0 64 64">
  <!-- Generator: Adobe Illustrator 29.6.1, SVG Export Plug-In . SVG Version: 2.1.1 Build 9)  -->
  <defs>
    <style>
      .st0 {
        fill: #2c2c2c;
      }
    </style>
  </defs>
  <path class="st0" d="M33.83,24.54c0,1.96,1.59,3.55,3.55,3.55,1.96,0,3.55-1.59,3.55-3.55h0c0-1.97-1.59-3.56-3.55-3.56-1.96,0-3.55,1.59-3.55,3.55h0Z"/>
  <path class="st0" d="M25.05,24.54c0,1.17.95,2.11,2.11,2.11s2.11-.95,2.11-2.11-.95-2.11-2.11-2.11-2.11.95-2.11,2.11Z"/>
  <path class="st0" d="M14.79,51.76c-4.29,0-7.74-1.26-9.52-4.22-2.33-3.88-.91-9.31,3.99-15.3.29-.34,1.2-1.36,2.31-1.88,1.4-.66,3.06-.05,3.72,1.35.65,1.4.05,3.06-1.35,3.72-.04.04-.29.29-.38.39-3.74,4.58-4.23,7.62-3.5,8.83,1.79,2.97,13,2.11,26.48-6.01,6.24-3.76,11.5-8.23,14.81-12.58,2.61-3.43,3.74-6.59,2.87-8.04-.79-1.32-3.61-1.84-7.35-1.38-.76.09-1.56.23-2.38.41-1.52.32-2.99-.65-3.31-2.16-.32-1.51.65-2.99,2.16-3.31.97-.21,1.92-.36,2.84-.48,7.99-1.01,11.39,1.64,12.84,4.04,2.19,3.64,1.05,8.73-3.21,14.31-3.73,4.89-9.55,9.85-16.38,13.97-8.12,4.89-17.54,8.33-24.64,8.33Z"/>
  <path class="st0" d="M33.11,54.67c-12.52,0-22.72-10.19-22.72-22.72s10.19-22.72,22.72-22.72,22.72,10.19,22.72,22.72-10.19,22.72-22.72,22.72ZM33.11,14.83c-9.44,0-17.12,7.68-17.12,17.12s7.68,17.12,17.12,17.12,17.12-7.68,17.12-17.12-7.68-17.12-17.12-17.12Z"/>
</svg>